<svg width="55" height="13" fill="none" xmlns="http://www.w3.org/2000/svg"><path d="M7.798 8.626h-6.16c.056.765.35 1.386.882 1.862.532.467 1.204.7 2.016.7.457 0 .877-.08 1.26-.238.383-.168.714-.41.994-.728l.56.644c-.327.392-.737.69-1.232.896a4.092 4.092 0 01-1.61.308c-.756 0-1.428-.159-2.016-.476a3.545 3.545 0 01-1.358-1.344c-.327-.57-.49-1.213-.49-1.932 0-.719.154-1.363.462-1.932a3.461 3.461 0 011.288-1.33 3.634 3.634 0 011.848-.476c.681 0 1.293.159 1.834.476.541.317.966.76 1.274 1.33.308.56.462 1.204.462 1.932l-.014.308zM4.242 5.434c-.71 0-1.307.229-1.792.686-.476.448-.747 1.036-.812 1.764H6.86c-.065-.728-.34-1.316-.826-1.764-.476-.457-1.073-.686-1.792-.686zM13.587 4.58c.924 0 1.657.27 2.198.812.55.532.826 1.311.826 2.338V12h-.994V7.828c0-.765-.191-1.349-.574-1.75-.382-.401-.928-.602-1.638-.602-.793 0-1.423.238-1.89.714-.457.467-.686 1.115-.686 1.946V12h-.994V4.636h.952v1.358c.27-.448.644-.793 1.12-1.036.486-.252 1.046-.378 1.68-.378zM26.057 1.612V12h-.952v-1.456a3.018 3.018 0 01-1.19 1.134c-.485.261-1.036.392-1.652.392-.69 0-1.316-.159-1.876-.476a3.402 3.402 0 01-1.316-1.33c-.317-.57-.476-1.218-.476-1.946s.159-1.377.476-1.946a3.306 3.306 0 011.316-1.316 3.738 3.738 0 011.876-.476c.597 0 1.134.126 1.61.378.485.243.882.602 1.19 1.078V1.612h.994zm-3.71 9.576c.513 0 .976-.117 1.386-.35.42-.243.747-.583.98-1.022.243-.439.364-.938.364-1.498s-.121-1.06-.364-1.498a2.43 2.43 0 00-.98-1.008 2.673 2.673 0 00-1.386-.364c-.523 0-.994.121-1.414.364-.41.233-.737.57-.98 1.008-.233.439-.35.938-.35 1.498s.117 1.06.35 1.498c.243.439.57.78.98 1.022.42.233.892.35 1.414.35z" fill="#868686"/><path d="M26.386 1.612h.994V12h-.994V1.612zM36.558 8.626h-6.16c.056.765.35 1.386.882 1.862.532.467 1.204.7 2.016.7.457 0 .877-.08 1.26-.238.382-.168.714-.41.994-.728l.56.644c-.327.392-.738.69-1.232.896a4.092 4.092 0 01-1.61.308c-.756 0-1.428-.159-2.016-.476a3.545 3.545 0 01-1.358-1.344c-.327-.57-.49-1.213-.49-1.932 0-.719.154-1.363.462-1.932a3.46 3.46 0 011.288-1.33 3.634 3.634 0 011.848-.476c.681 0 1.292.159 1.834.476.541.317.966.76 1.274 1.33.308.56.462 1.204.462 1.932l-.014.308zm-3.556-3.192c-.71 0-1.307.229-1.792.686-.476.448-.747 1.036-.812 1.764h5.222c-.066-.728-.34-1.316-.826-1.764-.476-.457-1.074-.686-1.792-.686zM40.569 12.07a5.868 5.868 0 01-1.722-.252c-.541-.177-.966-.397-1.274-.658l.448-.784c.308.243.695.443 1.162.602.467.15.952.224 1.456.224.672 0 1.167-.103 1.484-.308.327-.215.49-.513.49-.896 0-.27-.089-.48-.266-.63a1.647 1.647 0 00-.672-.35 8.476 8.476 0 00-1.078-.238 13.624 13.624 0 01-1.442-.336 2.226 2.226 0 01-.938-.602c-.252-.28-.378-.667-.378-1.162 0-.616.257-1.12.77-1.512.513-.392 1.227-.588 2.142-.588.476 0 .952.065 1.428.196.476.121.868.285 1.176.49l-.434.798c-.607-.42-1.33-.63-2.17-.63-.635 0-1.115.112-1.442.336-.317.224-.476.518-.476.882 0 .28.089.504.266.672.187.168.415.294.686.378.27.075.644.154 1.12.238.588.112 1.06.224 1.414.336.355.112.658.303.91.574.252.27.378.644.378 1.12 0 .644-.27 1.157-.812 1.54-.532.373-1.274.56-2.226.56zM47.419 12.07a5.868 5.868 0 01-1.722-.252c-.542-.177-.966-.397-1.274-.658l.448-.784c.308.243.695.443 1.162.602.466.15.952.224 1.456.224.672 0 1.166-.103 1.484-.308.326-.215.49-.513.49-.896 0-.27-.09-.48-.266-.63a1.647 1.647 0 00-.672-.35 8.476 8.476 0 00-1.078-.238 13.624 13.624 0 01-1.442-.336 2.226 2.226 0 01-.938-.602c-.252-.28-.378-.667-.378-1.162 0-.616.256-1.12.77-1.512.513-.392 1.227-.588 2.142-.588.476 0 .952.065 1.428.196.476.121.868.285 1.176.49l-.434.798c-.607-.42-1.33-.63-2.17-.63-.635 0-1.116.112-1.442.336-.318.224-.476.518-.476.882 0 .28.088.504.266.672.186.168.415.294.686.378.27.075.644.154 1.12.238.588.112 1.059.224 1.414.336.354.112.658.303.91.574.252.27.378.644.378 1.12 0 .644-.271 1.157-.812 1.54-.532.373-1.274.56-2.226.56z" fill="#363636"/></svg>