<svg width="23" height="23" fill="none" xmlns="http://www.w3.org/2000/svg"><path opacity=".3" d="M19.033 0H3.267A3.27 3.27 0 000 3.267v15.766A3.27 3.27 0 003.267 22.3h15.766a3.27 3.27 0 003.267-3.267V3.267A3.27 3.27 0 0019.033 0zm-7.84 16.986a5.88 5.88 0 11-.002-11.76 5.88 5.88 0 01.003 11.76h-.001zm6.534-10.453a1.96 1.96 0 110-3.92 1.96 1.96 0 010 3.92z" fill="#050505"/><path opacity=".3" d="M17.74 3.927a.634.634 0 100 1.268.634.634 0 000-1.268zM11.195 6.671a4.435 4.435 0 100 8.87 4.435 4.435 0 000-8.87z" fill="#050505"/></svg>