<svg width="20" height="36" viewBox="0 0 20 36" fill="none" xmlns="http://www.w3.org/2000/svg">
<path d="M0.399496 18.7249L16.7645 35.0899C17.0228 35.3322 17.3653 35.4645 17.7195 35.4588C18.0736 35.4532 18.4117 35.31 18.6621 35.0595C18.9126 34.809 19.0558 34.471 19.0615 34.1168C19.0671 33.7627 18.9348 33.4202 18.6925 33.1619L3.2925 17.7619L18.6925 2.35886C18.8258 2.2338 18.9327 2.08322 19.0066 1.91607C19.0806 1.74891 19.1203 1.56859 19.1232 1.38582C19.1261 1.20305 19.0923 1.02155 19.0237 0.852116C18.9551 0.68268 18.8531 0.528762 18.7238 0.399506C18.5946 0.270249 18.4407 0.168293 18.2712 0.0996933C18.1018 0.0310934 17.9203 -0.00274875 17.7375 0.000175476C17.5548 0.0030997 17.3744 0.0427294 17.2073 0.116714C17.0401 0.1907 16.8896 0.29753 16.7645 0.430855L0.399496 16.7959C0.272835 16.9225 0.172364 17.0729 0.103815 17.2384C0.0352665 17.4039 -1.52588e-05 17.5812 -1.52588e-05 17.7604C-1.52588e-05 17.9395 0.0352665 18.1168 0.103815 18.2823C0.172364 18.4478 0.272835 18.5982 0.399496 18.7249V18.7249Z" fill="#535458"/>
</svg>
