<svg width="11" height="9" viewBox="0 0 11 9" fill="none" xmlns="http://www.w3.org/2000/svg">
	<g clip-path="url(#clip0)">
		<path d="M4.02 7.99601C3.91948 8.09653 3.78315 8.153 3.641 8.153C3.49885 8.153 3.36252 8.09653 3.262 7.99601L0.235999 4.96901C0.160865 4.89463 0.101222 4.80608 0.0605178 4.7085C0.0198135 4.61092 -0.00114441 4.50624 -0.00114441 4.40051C-0.00114441 4.29479 0.0198135 4.1901 0.0605178 4.09253C0.101222 3.99495 0.160865 3.9064 0.235999 3.83201L0.614999 3.45301C0.689387 3.37788 0.77793 3.31824 0.87551 3.27753C0.973089 3.23683 1.07777 3.21587 1.1835 3.21587C1.28923 3.21587 1.39391 3.23683 1.49149 3.27753C1.58907 3.31824 1.67761 3.37788 1.752 3.45301L3.642 5.34301L8.748 0.236014C8.82239 0.16088 8.91093 0.101237 9.00851 0.060533C9.10609 0.0198288 9.21077 -0.00112915 9.3165 -0.00112915C9.42223 -0.00112915 9.52691 0.0198288 9.62449 0.060533C9.72207 0.101237 9.81061 0.16088 9.885 0.236014L10.264 0.615014C10.3391 0.689402 10.3988 0.777945 10.4395 0.875525C10.4802 0.973105 10.5011 1.07779 10.5011 1.18351C10.5011 1.28924 10.4802 1.39392 10.4395 1.4915C10.3988 1.58908 10.3391 1.67763 10.264 1.75201L4.02 7.99601Z" fill="black"/>
	</g>
	<defs>
		<clipPath id="clip0">
			<rect width="10.5" height="8.153" fill="white"/>
		</clipPath>
	</defs>
</svg>
