<svg width="23" height="23" viewBox="0 0 23 23" fill="none" xmlns="http://www.w3.org/2000/svg">
	<path opacity="0.3" d="M19.033 0H3.267C2.40078 0.000794332 1.57027 0.34525 0.957759 0.957759C0.34525 1.57027 0.000794332 2.40078 0 3.267L0 19.033C0.000794332 19.8992 0.34525 20.7297 0.957759 21.3422C1.57027 21.9548 2.40078 22.2992 3.267 22.3H19.033C19.8992 22.2992 20.7297 21.9548 21.3422 21.3422C21.9548 20.7297 22.2992 19.8992 22.3 19.033V3.267C22.2992 2.40078 21.9548 1.57027 21.3422 0.957759C20.7297 0.34525 19.8992 0.000794332 19.033 0V0ZM11.193 16.986C10.03 16.986 8.89321 16.6411 7.92625 15.995C6.95929 15.3489 6.20563 14.4306 5.76059 13.3562C5.31555 12.2817 5.1991 11.0995 5.42598 9.95887C5.65286 8.81826 6.21288 7.77055 7.03521 6.94821C7.85754 6.12588 8.90526 5.56586 10.0459 5.33898C11.1865 5.1121 12.3687 5.22855 13.4432 5.67359C14.5176 6.11863 15.4359 6.87229 16.082 7.83925C16.7281 8.80621 17.073 9.94305 17.073 11.106C17.0714 12.6648 16.4515 14.1593 15.3494 15.2617C14.2472 16.364 12.7528 16.9841 11.194 16.986H11.193ZM17.727 6.533C17.3393 6.533 16.9604 6.41805 16.6381 6.20268C16.3158 5.98731 16.0645 5.6812 15.9162 5.32306C15.7678 4.96492 15.729 4.57083 15.8047 4.19062C15.8803 3.81042 16.067 3.46118 16.3411 3.18707C16.6152 2.91296 16.9644 2.72629 17.3446 2.65066C17.7248 2.57503 18.1189 2.61385 18.4771 2.7622C18.8352 2.91054 19.1413 3.16176 19.3567 3.48408C19.572 3.8064 19.687 4.18535 19.687 4.573C19.6865 5.09266 19.4798 5.59089 19.1123 5.95834C18.7449 6.3258 18.2467 6.53247 17.727 6.533Z" fill="#050505"/>
	<path opacity="0.3" d="M17.74 3.927C17.6146 3.927 17.492 3.96419 17.3878 4.03385C17.2835 4.10351 17.2023 4.20253 17.1543 4.31838C17.1063 4.43423 17.0937 4.56171 17.1182 4.68469C17.1427 4.80767 17.203 4.92064 17.2917 5.00931C17.3804 5.09797 17.4933 5.15836 17.6163 5.18282C17.7393 5.20728 17.8668 5.19473 17.9826 5.14674C18.0985 5.09876 18.1975 5.01749 18.2672 4.91323C18.3368 4.80897 18.374 4.6864 18.374 4.561C18.374 4.39285 18.3072 4.23159 18.1883 4.1127C18.0694 3.9938 17.9082 3.927 17.74 3.927Z" fill="#050505"/>
	<path opacity="0.3" d="M11.195 6.67101C10.3179 6.67101 9.46039 6.93111 8.73106 7.41844C8.00173 7.90576 7.43328 8.59841 7.09761 9.4088C6.76193 10.2192 6.6741 11.1109 6.84523 11.9712C7.01635 12.8315 7.43875 13.6218 8.05899 14.242C8.67924 14.8623 9.46948 15.2847 10.3298 15.4558C11.1901 15.6269 12.0818 15.5391 12.8922 15.2034C13.7026 14.8677 14.3953 14.2993 14.8826 13.57C15.3699 12.8406 15.63 11.9832 15.63 11.106C15.6287 9.93018 15.161 8.80289 14.3296 7.97145C13.4981 7.14001 12.3708 6.67233 11.195 6.67101Z" fill="#050505"/>
</svg>
