<svg width="23" height="19" fill="none" xmlns="http://www.w3.org/2000/svg"><path opacity=".3" d="M8.319 18.251c-.99-.002-1.978-.08-2.955-.235a13.872 13.872 0 01-4.043-1.471L0 15.823l1.43-.47c1.564-.514 2.515-.833 3.692-1.333A4.913 4.913 0 012.6 11.094l-.333-1.01.273.042a4.962 4.962 0 01-.621-.766 4.7 4.7 0 01-.8-2.8l.063-.882.528.2a4.936 4.936 0 01-.478-1.34 5.1 5.1 0 01.542-3.428l.46-.844.615.734a11.319 11.319 0 007.333 4.128 4.386 4.386 0 01.266-2.33A4.363 4.363 0 0112.222.769 5.327 5.327 0 0115.314.01c1.125.059 2.197.5 3.036 1.252.377-.102.747-.226 1.11-.371.244-.092.52-.2.866-.315L21.6.137l-.831 2.373c.055 0 .111-.009.17-.011l1.36-.062-.8 1.1a2.456 2.456 0 00-.074.105c-.065.1-.145.219-1.249 1.693-.283.392-.42.871-.389 1.354a12.8 12.8 0 01-.7 5.15 9.113 9.113 0 01-2.446 3.624 10.8 10.8 0 01-5.121 2.476 15.767 15.767 0 01-3.2.314l-.001-.002z" fill="#050505"/></svg>